<?xml version="1.0" standalone="no"?>
<!DOCTYPE svg PUBLIC "-//W3C//DTD SVG 20010904//EN"
 "http://www.w3.org/TR/2001/REC-SVG-20010904/DTD/svg10.dtd">
<svg version="1.0" xmlns="http://www.w3.org/2000/svg"
 width="2000.000000pt" height="2000.000000pt" viewBox="0 0 2000.000000 2000.000000"
 preserveAspectRatio="xMidYMid meet">
<metadata>
Created by potrace 1.15, written by Peter Selinger 2001-2017
</metadata>
<g transform="translate(0.000000,2000.000000) scale(0.100000,-0.100000)"
fill="#000000" stroke="none">
<path d="M9405 19989 c-1103 -68 -2126 -295 -3125 -692 -647 -257 -1350 -632
-1923 -1024 -1264 -867 -2292 -1981 -3058 -3317 -139 -242 -402 -771 -512
-1031 -422 -997 -666 -1998 -763 -3125 -21 -249 -30 -1029 -15 -1312 111
-2053 829 -3982 2085 -5598 270 -347 487 -592 826 -930 498 -499 939 -862
1510 -1245 1886 -1263 4122 -1840 6400 -1649 3023 252 5773 1878 7467 4414
836 1253 1377 2682 1582 4180 96 699 116 1501 55 2210 -170 2005 -944 3916
-2214 5465 -377 459 -844 934 -1300 1321 -846 718 -1861 1314 -2905 1707 -894
336 -1742 525 -2755 613 -215 19 -1126 28 -1355 13z m5110 -7322 c547 -76
1011 -252 1433 -545 235 -162 519 -425 686 -635 370 -465 601 -1004 681 -1592
22 -162 31 -516 16 -685 -61 -717 -354 -1386 -834 -1905 -524 -568 -1190 -915
-1957 -1020 -165 -23 -497 -30 -671 -16 -931 79 -1758 538 -2321 1288 -46 61
-110 154 -142 207 l-60 96 -1316 0 -1316 0 -39 -67 c-145 -248 -417 -564 -665
-772 -485 -408 -1029 -648 -1670 -738 -177 -25 -633 -25 -810 0 -614 86 -1136
309 -1610 685 -127 102 -397 372 -499 502 -479 606 -721 1333 -698 2100 10
328 54 585 154 895 385 1197 1457 2071 2702 2204 51 6 96 13 99 16 3 3 1966 4
4361 2 4008 -3 4366 -4 4476 -20z"/>
<path d="M14313 11370 c-211 -38 -394 -207 -448 -416 -19 -75 -19 -213 0 -289
24 -91 73 -174 150 -251 113 -115 241 -168 400 -167 215 1 407 119 501 308
112 227 69 484 -110 660 -127 124 -321 185 -493 155z"/>
<path d="M5400 10610 l0 -530 -545 0 -545 0 0 -405 0 -405 545 0 545 0 0 -525
0 -525 405 0 405 0 0 525 0 525 505 0 505 0 0 405 0 405 -505 0 -505 0 0 530
0 530 -405 0 -405 0 0 -530z"/>
<path d="M8610 10000 l0 -120 385 0 385 0 0 120 0 120 -385 0 -385 0 0 -120z"/>
<path d="M10720 10000 l0 -120 385 0 385 0 0 120 0 120 -385 0 -385 0 0 -120z"/>
<path d="M12990 10064 c-194 -51 -355 -210 -405 -400 -19 -70 -21 -210 -5
-279 60 -250 295 -435 554 -435 291 0 538 232 562 529 13 162 -44 311 -165
432 -84 85 -162 130 -263 154 -79 18 -206 18 -278 -1z"/>
<path d="M15600 10074 c-226 -44 -409 -221 -455 -442 -41 -193 12 -371 154
-513 180 -181 430 -220 659 -105 324 163 405 603 162 879 -54 60 -159 130
-240 157 -64 22 -220 35 -280 24z"/>
<path d="M14280 8784 c-189 -50 -343 -197 -401 -384 -24 -76 -28 -210 -9 -291
69 -300 379 -494 677 -424 219 52 384 224 430 450 48 234 -75 486 -293 602
-113 60 -281 80 -404 47z"/>
</g>
</svg>
